<svg width="212" height="225" viewBox="0 0 212 225" fill="none" xmlns="http://www.w3.org/2000/svg">
<g clip-path="url(#clip0_2_384)">
<path d="M97.2851 0.175757C72.4665 1.59959 49.5235 8.20896 27.7551 20.1797C15.2132 27.0703 0 38.2851 0 40.6406C0 41.1504 0.947274 41.4492 3.33441 41.6426C5.81626 41.8535 8.1655 42.3633 11.1968 43.3476C21.0105 46.5117 30.578 52.9101 45.1471 66.0586C47.1174 67.834 48.993 69.3984 49.353 69.5566C50.376 70.0137 51.0391 69.75 54.2978 67.6582C68.0901 58.7637 81.4466 53.8066 95.7694 52.2773C99.7101 51.8555 107.269 51.8555 111.115 52.2773C114.639 52.664 119.641 53.5781 122.748 54.4043C145.539 60.5215 164.617 77.625 170.68 97.3828C171.911 101.408 172.366 104.467 172.537 110.127C172.688 115.576 172.65 115.699 169.846 116.684C167.895 117.369 156.49 120.744 153.326 121.57C149.916 122.449 150.162 122.256 150.313 124.154C150.389 125.033 150.617 126.738 150.806 127.951C151.374 131.396 151.583 136.125 151.374 140.273C151.109 145.283 150.901 147.305 149.764 155.215C148.76 162.229 148.192 166.553 147.964 168.838C147.566 173.32 147.832 180.562 148.646 186.328C149.859 194.977 152.075 200.461 157.797 208.828C161.87 214.822 167.118 221.537 169.278 223.541C171.172 225.316 171.665 225.422 172.214 224.244C172.631 223.365 172.726 222.521 172.972 217.705C173.711 203.994 177.027 191.848 185.192 173.057C186.158 170.824 188.621 165.34 190.686 160.84C198.852 142.98 201.182 137.496 204.441 128.496C208.344 117.633 210.428 108.773 211.564 98.0859C211.962 94.3418 212.019 84.6211 211.659 81.123C210.105 66.041 205.805 54.0351 197.734 42.2754C182.407 19.9687 154.122 4.67576 121.346 0.966773C114.488 0.175757 103.461 -0.175805 97.2851 0.175757Z" fill="#A38300"/>
<path d="M99.3691 59.7832C89.6122 60.3105 80.291 62.5957 71.0835 66.7266C65.703 69.1348 61.8002 71.332 56.6281 74.9004C53.1421 77.291 52.2896 78.1348 52.2896 79.084C52.2896 79.8926 52.6306 80.332 56.4197 84.4102C61.516 89.877 61.4592 89.8242 62.8801 89.8242C63.9789 89.8242 64.8504 89.4199 67.2565 87.75C74.9673 82.459 82.8865 79.4531 91.9803 78.3809C95.0685 78.0117 101.699 78.0996 104.863 78.5391C110.983 79.418 116.136 80.9648 121.422 83.5137C131.898 88.541 139.912 96.4336 144.44 106.172C145.369 108.176 145.767 109.266 146.998 113.168C147.585 114.996 147.604 115.014 151.412 114.029C153.098 113.59 156.3 112.904 158.498 112.518C165.584 111.27 167.611 110.795 168.065 110.268C168.71 109.547 168.312 108.088 165.83 102.305C162.382 94.2012 158.46 87.7324 153.534 82.002C151.299 79.4004 145.539 74.1094 142.849 72.1758C133.623 65.5488 123.013 61.4531 111.589 60.1348C109.998 59.9414 103.215 59.5723 102.306 59.625C102.04 59.625 100.733 59.6953 99.3691 59.7832Z" fill="#A38300"/>
<path d="M95.9589 85.0781C88.5133 85.957 83.3223 87.3632 77.1839 90.1582C73.0917 92.0039 70.1362 93.7793 66.4039 96.6093C64.5662 97.9804 46.5112 114.82 28.3235 132.1C23.644 136.547 18.5097 141.416 16.9373 142.91C13.9628 145.723 11.121 148.904 10.6853 149.889C10.1927 150.961 10.5147 151.312 15.0806 154.477C18.2256 156.656 19.7412 157.5 20.518 157.5C21.1242 157.5 21.3895 157.307 25.8606 153.527C31.8284 148.5 39.3498 141.311 49.9214 130.518C57.5753 122.695 57.3101 122.941 58.8068 122.361C62.8611 120.797 68.1659 120.867 73.5085 122.537C77.487 123.785 81.7877 126 85.0842 128.461C87.2819 130.096 90.5215 133.33 91.9235 135.281C93.155 136.986 95.6747 141.486 95.6747 141.978C95.6747 142.787 93.9696 144.228 90.2752 146.549C83.3223 150.891 72.4665 152.631 64.0736 150.715C59.5457 149.678 56.306 148.008 53.2368 145.125C52.5737 144.492 51.8917 143.965 51.7401 143.965C50.7171 143.965 49.3341 145.582 47.5721 148.834C45.8102 152.086 40.7328 159.768 24.4776 183.779C20.1391 190.16 16.4068 195.803 16.1416 196.33C15.6869 197.244 15.6869 197.297 15.99 197.824C16.2931 198.334 17.7519 199.389 21.3895 201.762C24.345 203.695 29.2139 205.611 33.9314 206.719C41.8316 208.6 52.0054 208.775 61.1939 207.246C74.7968 204.961 85.5768 199.178 89.669 191.988C90.1426 191.145 91.0899 189.229 91.7909 187.734C92.4729 186.24 93.1739 184.834 93.3255 184.605C93.7612 183.99 94.2349 184.131 95.0685 185.15C96.1673 186.451 98.5923 188.596 99.9564 189.439C105.848 193.131 119.072 197.42 130.781 199.424C137.317 200.549 137.355 200.566 137.809 200.391C138.567 200.127 138.567 199.459 137.847 196.154C136.313 188.982 135.593 179.613 136.01 171.809C136.351 165.305 137.014 160.26 138.681 151.348C140.519 141.416 141.011 136.969 141.011 129.902C141.011 124.91 140.841 122.484 140.178 118.564C137.014 99.8437 125.4 87.9785 107.61 85.3418C105.299 84.9902 98.0429 84.832 95.9589 85.0781Z" fill="#A38300"/>
</g>
<defs>
<clipPath id="clip0_2_384">
<rect width="212" height="225" fill="white"/>
</clipPath>
</defs>
</svg>
